<mxfile host="app.diagrams.net" modified="2023-12-20T10:17:02.568Z" agent="Mozilla/5.0 (Windows NT 10.0; Win64; x64) AppleWebKit/537.36 (KHTML, like Gecko) Chrome/120.0.0.0 Safari/537.36" etag="QbvNcuhGiy_1iZJsrvIj" version="22.1.11" type="github">
  <diagram id="C5RBs43oDa-KdzZeNtuy" name="Page-1">
    <mxGraphModel dx="1430" dy="509" grid="1" gridSize="10" guides="1" tooltips="1" connect="1" arrows="1" fold="1" page="1" pageScale="1" pageWidth="827" pageHeight="1169" math="0" shadow="0">
      <root>
        <mxCell id="WIyWlLk6GJQsqaUBKTNV-0" />
        <mxCell id="WIyWlLk6GJQsqaUBKTNV-1" parent="WIyWlLk6GJQsqaUBKTNV-0" />
        <mxCell id="Q4G4J15sgfXDowsvTmNi-10" value="Next" style="edgeStyle=orthogonalEdgeStyle;rounded=0;orthogonalLoop=1;jettySize=auto;html=1;labelBackgroundColor=none;strokeColor=#182E3E;fontColor=default;" edge="1" parent="WIyWlLk6GJQsqaUBKTNV-1" source="Q4G4J15sgfXDowsvTmNi-0" target="Q4G4J15sgfXDowsvTmNi-2">
          <mxGeometry relative="1" as="geometry" />
        </mxCell>
        <mxCell id="Q4G4J15sgfXDowsvTmNi-0" value="&lt;b&gt;&lt;font style=&quot;font-size: 33px;&quot;&gt;2&lt;/font&gt;&lt;/b&gt;" style="ellipse;whiteSpace=wrap;html=1;aspect=fixed;fillColor=#F5AB50;strokeColor=#909090;fontColor=#1A1A1A;labelBackgroundColor=none;" vertex="1" parent="WIyWlLk6GJQsqaUBKTNV-1">
          <mxGeometry x="140" y="210" width="80" height="80" as="geometry" />
        </mxCell>
        <mxCell id="Q4G4J15sgfXDowsvTmNi-11" value="" style="edgeStyle=orthogonalEdgeStyle;rounded=0;orthogonalLoop=1;jettySize=auto;html=1;labelBackgroundColor=none;strokeColor=#182E3E;fontColor=default;" edge="1" parent="WIyWlLk6GJQsqaUBKTNV-1" source="Q4G4J15sgfXDowsvTmNi-2" target="Q4G4J15sgfXDowsvTmNi-4">
          <mxGeometry relative="1" as="geometry" />
        </mxCell>
        <mxCell id="Q4G4J15sgfXDowsvTmNi-15" value="Next" style="edgeLabel;html=1;align=center;verticalAlign=middle;resizable=0;points=[];labelBackgroundColor=none;fontColor=#1A1A1A;" vertex="1" connectable="0" parent="Q4G4J15sgfXDowsvTmNi-11">
          <mxGeometry x="-0.3246" y="2" relative="1" as="geometry">
            <mxPoint as="offset" />
          </mxGeometry>
        </mxCell>
        <mxCell id="Q4G4J15sgfXDowsvTmNi-2" value="&lt;b&gt;&lt;font style=&quot;font-size: 33px;&quot;&gt;30&lt;/font&gt;&lt;/b&gt;" style="ellipse;whiteSpace=wrap;html=1;aspect=fixed;fillColor=#F5AB50;strokeColor=#909090;fontColor=#1A1A1A;labelBackgroundColor=none;" vertex="1" parent="WIyWlLk6GJQsqaUBKTNV-1">
          <mxGeometry x="284.28999999999996" y="210" width="80" height="80" as="geometry" />
        </mxCell>
        <mxCell id="Q4G4J15sgfXDowsvTmNi-12" value="Next" style="edgeStyle=orthogonalEdgeStyle;rounded=0;orthogonalLoop=1;jettySize=auto;html=1;labelBackgroundColor=none;strokeColor=#182E3E;fontColor=default;" edge="1" parent="WIyWlLk6GJQsqaUBKTNV-1" source="Q4G4J15sgfXDowsvTmNi-4" target="Q4G4J15sgfXDowsvTmNi-6">
          <mxGeometry relative="1" as="geometry" />
        </mxCell>
        <mxCell id="Q4G4J15sgfXDowsvTmNi-4" value="&lt;b&gt;&lt;font style=&quot;font-size: 33px;&quot;&gt;42&lt;/font&gt;&lt;/b&gt;" style="ellipse;whiteSpace=wrap;html=1;aspect=fixed;fillColor=#F5AB50;strokeColor=#909090;fontColor=#1A1A1A;labelBackgroundColor=none;" vertex="1" parent="WIyWlLk6GJQsqaUBKTNV-1">
          <mxGeometry x="428.58" y="210" width="80" height="80" as="geometry" />
        </mxCell>
        <mxCell id="Q4G4J15sgfXDowsvTmNi-14" value="" style="edgeStyle=orthogonalEdgeStyle;rounded=0;orthogonalLoop=1;jettySize=auto;html=1;labelBackgroundColor=none;strokeColor=#182E3E;fontColor=default;" edge="1" parent="WIyWlLk6GJQsqaUBKTNV-1" source="Q4G4J15sgfXDowsvTmNi-6" target="Q4G4J15sgfXDowsvTmNi-13">
          <mxGeometry relative="1" as="geometry" />
        </mxCell>
        <mxCell id="Q4G4J15sgfXDowsvTmNi-6" value="&lt;span style=&quot;font-size: 33px;&quot;&gt;&lt;b&gt;9&lt;/b&gt;&lt;/span&gt;" style="ellipse;whiteSpace=wrap;html=1;aspect=fixed;fillColor=#F5AB50;strokeColor=#909090;fontColor=#1A1A1A;labelBackgroundColor=none;" vertex="1" parent="WIyWlLk6GJQsqaUBKTNV-1">
          <mxGeometry x="572.87" y="210" width="80" height="80" as="geometry" />
        </mxCell>
        <mxCell id="Q4G4J15sgfXDowsvTmNi-9" value="" style="edgeStyle=orthogonalEdgeStyle;rounded=0;orthogonalLoop=1;jettySize=auto;html=1;labelBackgroundColor=none;strokeColor=#182E3E;fontColor=default;" edge="1" parent="WIyWlLk6GJQsqaUBKTNV-1" source="Q4G4J15sgfXDowsvTmNi-8" target="Q4G4J15sgfXDowsvTmNi-0">
          <mxGeometry relative="1" as="geometry" />
        </mxCell>
        <mxCell id="Q4G4J15sgfXDowsvTmNi-8" value="&lt;font style=&quot;font-size: 17px;&quot;&gt;Head&lt;/font&gt;" style="rounded=0;whiteSpace=wrap;html=1;labelBackgroundColor=none;fillColor=#F5AB50;strokeColor=#909090;fontColor=#1A1A1A;" vertex="1" parent="WIyWlLk6GJQsqaUBKTNV-1">
          <mxGeometry x="140" y="120" width="80" height="40" as="geometry" />
        </mxCell>
        <mxCell id="Q4G4J15sgfXDowsvTmNi-13" value="None" style="whiteSpace=wrap;html=1;fillColor=#F5AB50;strokeColor=#909090;fontColor=#1A1A1A;labelBackgroundColor=none;" vertex="1" parent="WIyWlLk6GJQsqaUBKTNV-1">
          <mxGeometry x="670" y="240" width="32.87" height="20" as="geometry" />
        </mxCell>
        <mxCell id="Q4G4J15sgfXDowsvTmNi-17" value="" style="edgeStyle=orthogonalEdgeStyle;rounded=0;orthogonalLoop=1;jettySize=auto;html=1;labelBackgroundColor=none;strokeColor=#182E3E;fontColor=default;" edge="1" parent="WIyWlLk6GJQsqaUBKTNV-1" source="Q4G4J15sgfXDowsvTmNi-16" target="Q4G4J15sgfXDowsvTmNi-6">
          <mxGeometry relative="1" as="geometry" />
        </mxCell>
        <mxCell id="Q4G4J15sgfXDowsvTmNi-16" value="&lt;font style=&quot;font-size: 17px;&quot;&gt;Tail&lt;/font&gt;" style="rounded=0;whiteSpace=wrap;html=1;labelBackgroundColor=none;fillColor=#F5AB50;strokeColor=#909090;fontColor=#1A1A1A;" vertex="1" parent="WIyWlLk6GJQsqaUBKTNV-1">
          <mxGeometry x="572.87" y="120" width="80" height="40" as="geometry" />
        </mxCell>
        <mxCell id="Q4G4J15sgfXDowsvTmNi-18" value="&lt;h1&gt;&lt;font face=&quot;Helvetica&quot; style=&quot;font-size: 23px;&quot;&gt;LinkedList&lt;/font&gt;&lt;/h1&gt;" style="text;html=1;strokeColor=none;fillColor=none;align=center;verticalAlign=middle;whiteSpace=wrap;rounded=0;fontColor=#1A1A1A;" vertex="1" parent="WIyWlLk6GJQsqaUBKTNV-1">
          <mxGeometry x="70" y="50" width="60" height="30" as="geometry" />
        </mxCell>
      </root>
    </mxGraphModel>
  </diagram>
</mxfile>
